<?xml version="1.0" standalone="no"?>
<!DOCTYPE svg PUBLIC "-//W3C//DTD SVG 20010904//EN"
 "http://www.w3.org/TR/2001/REC-SVG-20010904/DTD/svg10.dtd">
<svg version="1.0" xmlns="http://www.w3.org/2000/svg"
 width="32.000000pt" height="32.000000pt" viewBox="0 0 32.000000 32.000000"
 preserveAspectRatio="xMidYMid meet">

<g transform="translate(0.000000,32.000000) scale(0.100000,-0.100000)"
fill="#000000" stroke="none">
<path d="M37 274 c-15 -15 -5 -37 36 -84 35 -41 43 -59 47 -102 3 -28 10 -53
16 -55 20 -7 64 45 64 74 0 19 15 45 46 81 70 79 63 86 -82 90 -66 1 -123 -1
-127 -4z m233 -20 c0 -3 -22 -33 -50 -66 -34 -41 -50 -69 -50 -88 0 -16 -4
-32 -10 -35 -6 -4 -10 8 -10 29 0 27 -11 47 -50 93 -27 32 -50 61 -50 66 0 4
50 7 110 7 61 0 110 -3 110 -6z"/>
</g>
</svg>
