<?xml version="1.0" standalone="no"?>
<!DOCTYPE svg PUBLIC "-//W3C//DTD SVG 20010904//EN"
 "http://www.w3.org/TR/2001/REC-SVG-20010904/DTD/svg10.dtd">
<svg version="1.0" xmlns="http://www.w3.org/2000/svg"
 width="32.000000pt" height="32.000000pt" viewBox="0 0 32.000000 32.000000"
 preserveAspectRatio="xMidYMid meet">

<g transform="translate(0.000000,32.000000) scale(0.100000,-0.100000)"
fill="#000000" stroke="none">
<path d="M70 302 c-78 -41 -90 -144 -24 -202 36 -32 95 -41 133 -20 14 7 27 0
61 -35 47 -48 67 -55 77 -29 4 10 -10 32 -40 62 -35 36 -44 51 -37 62 5 8 10
34 10 56 0 49 -28 90 -76 110 -44 18 -62 18 -104 -4z m120 -60 c44 -55 3 -132
-70 -132 -25 0 -68 40 -71 65 -6 41 11 76 42 89 40 17 75 9 99 -22z"/>
<path d="M110 250 c0 -5 9 -10 19 -10 12 0 25 -12 33 -30 14 -33 28 -39 28
-12 0 22 -9 34 -37 50 -27 15 -43 16 -43 2z"/>
</g>
</svg>
